<svg id="Layer_1" data-name="Layer 1" xmlns="http://www.w3.org/2000/svg" viewBox="0 0 104.5 101"><title>icons</title><path id="_Path_" data-name="&lt;Path&gt;" d="M37.22,40.64c-.8-.8-1.6-1.6-2.4-2.5l-8.7-8.7a3.48,3.48,0,0,1-.7-3.6,2.92,2.92,0,0,1,4.5-.8l3.5,3.5,6.4,6.4c.5.5,1,1.1,1.5,1.7.1-.1.2-.1.3-.2v-5.8a3.05,3.05,0,0,1,2.5-3.2,2.77,2.77,0,0,1,3,1.9c.1.6.2,1.3.3,2,0,3.9-.1,7.9,0,11.8a3.3,3.3,0,0,1-3.5,3.5c-4.2-.1-8.4,0-12.5,0a3.08,3.08,0,0,1-3-2,2.78,2.78,0,0,1,1.7-3.6,4.53,4.53,0,0,1,1.6-.3h5.4C37.12,40.84,37.22,40.74,37.22,40.64Z"/><path id="_Path_2" data-name="&lt;Path&gt;" d="M67.72,40.84h6.1a3.09,3.09,0,0,1,2.8,1.7,2.79,2.79,0,0,1-1.5,3.8,4.53,4.53,0,0,1-1.6.3H60.92a3.13,3.13,0,0,1-2.9-1.7,1.8,1.8,0,0,1-.2-1V30.64a3.08,3.08,0,0,1,1.9-2.9,2.8,2.8,0,0,1,3.3,1.1,3.74,3.74,0,0,1,.5,1.8c.1,1.8,0,3.5,0,5.3v.7a8.12,8.12,0,0,0,.8-.6L75,25.34a3.21,3.21,0,0,1,3.7-.6,1,1,0,0,1,.7,1.1c-.1,1.2.2,2.5-.2,3.5s-1.5,1.6-2.3,2.5l-8.6,8.6A.57.57,0,0,0,67.72,40.84Z"/><path id="_Path_3" data-name="&lt;Path&gt;" d="M41.42,65.24l-3,3-8,8a1.53,1.53,0,0,1-1,.4,28.05,28.05,0,0,1-2.9,0,1.27,1.27,0,0,1-1.4-1.2,3.32,3.32,0,0,1,1-3.1c3.6-3.5,7.1-7.1,10.6-10.6a3.17,3.17,0,0,0,.5-.6c-.3,0-.5-.1-.8-.1h-5.2a3,3,0,0,1-3-2,2.78,2.78,0,0,1,1.6-3.5,4.53,4.53,0,0,1,1.6-.3h12.5a3.1,3.1,0,0,1,3.3,3.3v12.6a3.13,3.13,0,0,1-1.4,2.8,2.87,2.87,0,0,1-4.4-2.4c-.1-1.8,0-3.6,0-5.5v-.7C41.52,65.34,41.52,65.34,41.42,65.24Z"/><path id="_Path_4" data-name="&lt;Path&gt;" d="M79.22,76.64h-3.9c-.3,0-.6-.3-.8-.5-3.5-3.5-7-6.9-10.4-10.4a2.19,2.19,0,0,0-.5-.3,1.69,1.69,0,0,0-.2.5c0,1.8-.1,3.5,0,5.3a2.94,2.94,0,0,1-3.7,3,3.39,3.39,0,0,1-2-2.2c0-.4-.1-.7-.1-1.1,0-4.2.1-8.4,0-12.6a3.16,3.16,0,0,1,3.2-3.2h12.9a3,3,0,0,1,3.1,3.2,2.68,2.68,0,0,1-2,2.3,11,11,0,0,1-2.6.2,34.64,34.64,0,0,0-4.5.2c.5.5,1,1.1,1.5,1.6l9.6,9.6a.86.86,0,0,1,.3.6C79.22,74.14,79.22,75.34,79.22,76.64Z"/></svg>