<svg id="Layer_1" data-name="Layer 1" xmlns="http://www.w3.org/2000/svg" viewBox="0 0 104.5 101"><title>icons</title><path id="_Compound_Path_" data-name="&lt;Compound Path&gt;" d="M50.7,21.3h3.1c.2,0,.3.1.5.1A14.86,14.86,0,0,1,67.2,34.1a89.21,89.21,0,0,1,.3,9v1a1.49,1.49,0,0,0,.6.1,5,5,0,0,1,4.5,5.2V74.5a5.12,5.12,0,0,1-5,5.2H37a5,5,0,0,1-5-5.1V49a5,5,0,0,1,4.1-4.8c.3-.1.6-.1,1-.2V36.6a15.11,15.11,0,0,1,9.6-14.3C47.9,21.9,49.3,21.7,50.7,21.3Zm-13.6,28V74.5H67.5V49.3Zm25.3-5.2V36.4a9.79,9.79,0,0,0-3.3-7.3c-5.4-5.2-14.8-2.5-16.6,4.7a10.07,10.07,0,0,0-.3,2.5v7.8Z"/><path id="_Path_" data-name="&lt;Path&gt;" d="M49.7,65.6V65a1.68,1.68,0,0,0-.8-1.8,4.91,4.91,0,0,1-1.4-5.6,5.15,5.15,0,0,1,5.1-3.2,4.9,4.9,0,0,1,4.5,4,5.22,5.22,0,0,1-1.9,5.2,1.6,1.6,0,0,0-.5,1,22.55,22.55,0,0,0,0,2.6,2.5,2.5,0,0,1-5,0V65.6Z"/></svg>