<svg id="Layer_1" data-name="Layer 1" xmlns="http://www.w3.org/2000/svg" viewBox="0 0 104.5 101"><title>icons</title><path id="_Compound_Path_" data-name="&lt;Compound Path&gt;" d="M26.25,73.8V27.1a6.72,6.72,0,0,1,.6-1.2,3.45,3.45,0,0,1,2.1-1.4h46.7l.1.1a3.18,3.18,0,0,1,2.5,3.4V73.8a3.2,3.2,0,0,1-3.4,2.7H29.55a3.21,3.21,0,0,1-3-2.2A1.33,1.33,0,0,1,26.25,73.8Zm26-46h-21a1.59,1.59,0,0,0-1.8,1.8V71.3c0,1.4.6,2,2,2h41.6a1.69,1.69,0,0,0,1.9-1.9V29.8c0-1.3-.6-1.9-2-1.9C66,27.8,59.15,27.8,52.25,27.8Z"/><path id="_Compound_Path_2" data-name="&lt;Compound Path&gt;" d="M42.45,47.3h-6.3a3.26,3.26,0,0,1-3.4-3.4V34.5a3.26,3.26,0,0,1,3.4-3.4h12.7a3.2,3.2,0,0,1,3.4,3.4v9.4a3.26,3.26,0,0,1-3.4,3.4Zm0-13h-4.7a1.68,1.68,0,0,0-1.8,1.8v6.2a1.68,1.68,0,0,0,1.8,1.8H47a1.71,1.71,0,0,0,1.9-1.8V36.2a1.68,1.68,0,0,0-1.8-1.8C45.65,34.3,44,34.3,42.45,34.3Z"/><path id="_Path_" data-name="&lt;Path&gt;" d="M52.25,50.5h17.7a1.6,1.6,0,0,1,1.5,2.4,1.72,1.72,0,0,1-1.6.8H34.35a1.63,1.63,0,0,1-1.7-1.7,1.61,1.61,0,0,1,1.7-1.6h12.8C48.95,50.5,50.55,50.5,52.25,50.5Z"/><path id="_Path_2" data-name="&lt;Path&gt;" d="M52.25,57h17.7a1.6,1.6,0,1,1,0,3.2H34.45a1.65,1.65,0,0,1-1.7-2.2,1.59,1.59,0,0,1,1.7-1h17.8Z"/><path id="_Path_3" data-name="&lt;Path&gt;" d="M52.25,63.5h17.7a1.65,1.65,0,1,1,0,3.3H34.05a1.61,1.61,0,0,1,.3-3.2h14C49.75,63.5,50.95,63.5,52.25,63.5Z"/><path id="_Path_4" data-name="&lt;Path&gt;" d="M63.55,44H70a1.55,1.55,0,0,1,1.6,1.4,1.72,1.72,0,0,1-1.3,1.8H57.05a1.63,1.63,0,0,1-.5-3.2h7Z"/><path id="_Path_5" data-name="&lt;Path&gt;" d="M63.55,40.8H57a1.55,1.55,0,0,1-1.6-1.4,1.65,1.65,0,0,1,1.2-1.8h13.3a1.61,1.61,0,0,1,1.7,1.6,1.69,1.69,0,0,1-1.7,1.7C67.85,40.8,65.75,40.8,63.55,40.8Z"/><path id="_Path_6" data-name="&lt;Path&gt;" d="M63.65,31h6.3a1.64,1.64,0,0,1,1.8,1.6,1.58,1.58,0,0,1-1.8,1.6H57.25a1.55,1.55,0,0,1-1.7-1.6,1.64,1.64,0,0,1,1.8-1.6Z"/></svg>