<svg xmlns="http://www.w3.org/2000/svg" viewBox="0 0 20 20"><defs><style>.cls-1{fill:#7bdbc8;}</style></defs><title>Asset 2</title><g id="Layer_2" data-name="Layer 2"><g id="Grids_and_guides" data-name="Grids and guides"><path class="cls-1" d="M10,20H3l-.12,0a3.26,3.26,0,0,1-1.21-.46A3.35,3.35,0,0,1,0,16.58Q0,10,0,3.42A3.44,3.44,0,0,1,3.42,0H16.58a3.47,3.47,0,0,1,3.31,2.54c0,.15.08.31.12.46V17c0,.05,0,.1,0,.15a3.47,3.47,0,0,1-2.55,2.75L17,20H13.13c0-.06,0-.12,0-.17q0-3.59,0-7.17v-.21h3.14c.14,0,.19,0,.19-.18,0-1,0-2,0-3,0-.06,0-.11,0-.19H13.13c0-.52,0-1,0-1.5a.71.71,0,0,1,.79-.71h2.5V3.55H13.82a3.33,3.33,0,0,0-2,.62,4.21,4.21,0,0,0-1.78,2.91A15.68,15.68,0,0,0,10,8.92c0,.06,0,.12,0,.2H7.57c0,.05,0,.09,0,.12,0,1,0,2,0,3.05,0,.14.06.15.17.15H10Z"/></g></g></svg>