<svg xmlns="http://www.w3.org/2000/svg" viewBox="0 0 16.43 16.43"><defs><style>.cls-1{fill:#fff;}</style></defs><title>Asset 1</title><g id="Layer_2" data-name="Layer 2"><g id="Grids_and_guides" data-name="Grids and guides"><g id="I33nMQ.tif"><path class="cls-1" d="M8.21,16.43H2.47l-.1,0a2.68,2.68,0,0,1-1-.38A2.75,2.75,0,0,1,0,13.61Q0,8.21,0,2.81A2.83,2.83,0,0,1,2.81,0H13.61a2.85,2.85,0,0,1,2.72,2.09l.09.38V14l0,.12a2.85,2.85,0,0,1-2.09,2.26l-.34.08H10.79s0-.1,0-.14q0-2.94,0-5.89v-.17h2.58c.12,0,.16,0,.16-.15,0-.81,0-1.63,0-2.44,0,0,0-.09,0-.16H10.79c0-.42,0-.83,0-1.24a.58.58,0,0,1,.65-.58H13.5V2.92H11.35a2.73,2.73,0,0,0-1.62.51A3.46,3.46,0,0,0,8.27,5.82a12.88,12.88,0,0,0-.06,1.5c0,.05,0,.1,0,.16h-2s0,.07,0,.1c0,.84,0,1.67,0,2.51,0,.11,0,.13.14.13H8.21Z"/></g></g></g></svg>