<svg xmlns="http://www.w3.org/2000/svg" viewBox="0 0 20 20"><defs><style>.cls-1{fill:#7bdbc8;}</style></defs><title>Asset 4</title><g id="Layer_2" data-name="Layer 2"><g id="Grids_and_guides" data-name="Grids and guides"><g id="_Group_" data-name="&lt;Group&gt;"><path class="cls-1" d="M20,7.2q0,3,0,6a9.67,9.67,0,0,1-.39,3.09,5.13,5.13,0,0,1-4,3.52,13.45,13.45,0,0,1-2.77.21q-3,0-5.94,0a9.7,9.7,0,0,1-3.11-.4,5.14,5.14,0,0,1-3.51-4A14.15,14.15,0,0,1,0,12.8c0-.93,0-1.87,0-2.81,0-1.35,0-2.7,0-4.05A6.74,6.74,0,0,1,.92,2.63,5.18,5.18,0,0,1,4.45.22,13.91,13.91,0,0,1,7.19,0q3,0,6,0a9.7,9.7,0,0,1,3.11.4,5.14,5.14,0,0,1,3.51,4A13.32,13.32,0,0,1,20,7.2Zm-1.8,2.63c0-.79,0-1.58,0-2.37s0-1.52-.12-2.27A3.47,3.47,0,0,0,15.22,2a13.12,13.12,0,0,0-2.73-.19q-2.5,0-5,0A14.73,14.73,0,0,0,4.92,2a3.38,3.38,0,0,0-2.84,2.5A6.05,6.05,0,0,0,1.87,5.9c-.09,1.81-.07,3.62-.06,5.43a31.5,31.5,0,0,0,.13,3.46A3.46,3.46,0,0,0,4.77,18a13,13,0,0,0,2.75.2c1.66,0,3.32,0,5,0a17.57,17.57,0,0,0,2.32-.12,3.92,3.92,0,0,0,2-.77,3.82,3.82,0,0,0,1.35-2.89C18.23,12.89,18.19,11.36,18.19,9.84Z"/><path class="cls-1" d="M15.35,3.46a1.18,1.18,0,0,1,1.19,1.21,1.2,1.2,0,0,1-1.2,1.2,1.22,1.22,0,0,1-1.21-1.21A1.2,1.2,0,0,1,15.35,3.46Z"/><path class="cls-1" d="M10.05,4.86A5.14,5.14,0,1,1,4.86,9.95,5.12,5.12,0,0,1,10.05,4.86Zm0,8.47A3.33,3.33,0,1,0,6.67,10,3.35,3.35,0,0,0,10,13.33Z"/></g></g></g></svg>