<svg xmlns="http://www.w3.org/2000/svg" viewBox="0 0 23.92 19.44"><defs><style>.cls-1{fill:#7bdbc8;}</style></defs><title>Asset 3</title><g id="Layer_2" data-name="Layer 2"><g id="Grids_and_guides" data-name="Grids and guides"><path class="cls-1" d="M7.52,19.44a13.87,13.87,0,0,0,14-14c0-.21,0-.42,0-.63A10,10,0,0,0,23.92,2.3a9.79,9.79,0,0,1-2.82.77A4.92,4.92,0,0,0,23.26.36a9.83,9.83,0,0,1-3.12,1.19A4.91,4.91,0,0,0,11.78,6,13.93,13.93,0,0,1,1.66.9,4.91,4.91,0,0,0,3.18,7.45,4.87,4.87,0,0,1,1,6.84s0,0,0,.06A4.91,4.91,0,0,0,4.9,11.71a4.9,4.9,0,0,1-2.22.08A4.91,4.91,0,0,0,7.26,15.2a9.85,9.85,0,0,1-6.09,2.1A10,10,0,0,1,0,17.23a13.89,13.89,0,0,0,7.52,2.2"/></g></g></svg>