<svg xmlns="http://www.w3.org/2000/svg" viewBox="0 0 19.64 15.96"><defs><style>.cls-1{fill:#fff;}</style></defs><title>Asset 4</title><g id="Layer_2" data-name="Layer 2"><g id="Grids_and_guides" data-name="Grids and guides"><path class="cls-1" d="M6.18,16A11.39,11.39,0,0,0,17.64,4.5c0-.17,0-.35,0-.52a8.2,8.2,0,0,0,2-2.09,8,8,0,0,1-2.31.63A4,4,0,0,0,19.1.3a8.08,8.08,0,0,1-2.56,1A4,4,0,0,0,9.67,4.95,11.44,11.44,0,0,1,1.37.74,4,4,0,0,0,2.61,6.12a4,4,0,0,1-1.83-.5s0,0,0,.05A4,4,0,0,0,4,9.62a4,4,0,0,1-1.82.07A4,4,0,0,0,6,12.48a8.09,8.09,0,0,1-5,1.73,8.2,8.2,0,0,1-1-.06A11.41,11.41,0,0,0,6.18,16"/></g></g></svg>