<svg xmlns="http://www.w3.org/2000/svg" viewBox="0 0 57.46 22.07"><defs><style>.cls-1{fill:#41aeb7;}</style></defs><title>Asset 2</title><g id="Layer_2" data-name="Layer 2"><g id="Grids_and_guides" data-name="Grids and guides"><path id="_Compound_Path_" data-name="&lt;Compound Path&gt;" class="cls-1" d="M57.46,16.14a3.93,3.93,0,0,0-1.11-2.7,5.91,5.91,0,0,0,.37-6.31L57.46,7V4.34H53.32a5.9,5.9,0,0,0-1.79-.28h0a5.93,5.93,0,0,0-5.7,4.31,5.91,5.91,0,0,0-.51-1.25L46.05,7V4.34H41.93a5.92,5.92,0,0,0-7.26,3.39V0H31V4.51a5.92,5.92,0,0,0-7.71,3.21V4.07H19.58V10a2.24,2.24,0,1,1-4.48,0V4.07H11.41v3.7A5.92,5.92,0,0,0,0,10v5.93H3.69V10a2.24,2.24,0,0,1,4.48,0v5.93h3.69v-3.7A5.92,5.92,0,0,0,23,11.6,5.92,5.92,0,0,0,31,15.48v.44h3.69V12.25a5.93,5.93,0,0,0,5.48,3.67h2a.26.26,0,0,1,.26.25,2.24,2.24,0,0,1-4.18,1.08L35,19.08a5.93,5.93,0,0,0,11.07-2.9h0v0h0A3.93,3.93,0,0,0,45,13.44a5.92,5.92,0,0,0,.88-1.85,5.93,5.93,0,0,0,5.7,4.33h2a.26.26,0,0,1,.26.25,2.24,2.24,0,0,1-4.18,1.09L46.4,19.11a5.93,5.93,0,0,0,11.06-2.92h0v0ZM28.74,12.23A2.24,2.24,0,1,1,31,10,2.24,2.24,0,0,1,28.74,12.23Zm11.4,0A2.24,2.24,0,1,1,42.38,10,2.24,2.24,0,0,1,40.14,12.23Zm11.39,0A2.24,2.24,0,1,1,53.77,10,2.24,2.24,0,0,1,51.53,12.23Z"/></g></g></svg>