<svg xmlns="http://www.w3.org/2000/svg" viewBox="0 0 78.46 30.13"><defs><style>.cls-1{fill:#fff;}</style></defs><title>Asset 1</title><g id="Layer_2" data-name="Layer 2"><g id="Layer_1-2" data-name="Layer 1"><path id="_Compound_Path_" data-name="&lt;Compound Path&gt;" class="cls-1" d="M78.46,22a5.37,5.37,0,0,0-1.51-3.69,8.07,8.07,0,0,0,.51-8.62l1-.23V5.93H72.81a8.06,8.06,0,0,0-2.44-.38h0a8.1,8.1,0,0,0-7.78,5.89,8.07,8.07,0,0,0-.7-1.71l1-.23V5.93H57.25a8.09,8.09,0,0,0-9.92,4.63V0h-5V6.15a8.08,8.08,0,0,0-10.53,4.38v-5h-5v8.09a3.06,3.06,0,1,1-6.11,0V5.55h-5v5A8.09,8.09,0,0,0,0,13.64v8.09H5V13.64a3.06,3.06,0,0,1,6.11,0v8.09h5v-5a8.08,8.08,0,0,0,15.27-.85A8.08,8.08,0,0,0,42.3,21.13v.6h5v-5a8.1,8.1,0,0,0,7.48,5h2.7a.36.36,0,0,1,.36.35,3.06,3.06,0,0,1-5.71,1.47l-4.37,2.5a8.09,8.09,0,0,0,15.12-4h0V22h0a5.37,5.37,0,0,0-1.51-3.69,8.08,8.08,0,0,0,1.2-2.53,8.1,8.1,0,0,0,7.79,5.91h2.7a.36.36,0,0,1,.36.35,3.06,3.06,0,0,1-5.7,1.48l-4.36,2.52a8.09,8.09,0,0,0,15.1-4h0V22ZM39.24,16.7a3.06,3.06,0,1,1,3.06-3.06A3.06,3.06,0,0,1,39.24,16.7Zm15.57,0a3.06,3.06,0,1,1,3.06-3.06A3.06,3.06,0,0,1,54.81,16.7Zm15.56,0a3.06,3.06,0,1,1,3.06-3.06A3.06,3.06,0,0,1,70.37,16.7Z"/></g></g></svg>