<svg xmlns="http://www.w3.org/2000/svg" viewBox="0 0 67.74 26.02"><defs><style>.cls-1{fill:#282828;}</style></defs><title>Asset 1</title><g id="Layer_2" data-name="Layer 2"><g id="Layer_1-2" data-name="Layer 1"><g id="_Group_" data-name="&lt;Group&gt;"><path id="_Path_" data-name="&lt;Path&gt;" class="cls-1" d="M14,18.77H9.63v-7a2.64,2.64,0,0,0-5.28,0v7H0v-7a7,7,0,0,1,14,0Z"/></g><g id="_Group_2" data-name="&lt;Group&gt;"><path id="_Path_2" data-name="&lt;Path&gt;" class="cls-1" d="M20.44,18.77a7,7,0,0,1-7-7v-7H17.8v7a2.64,2.64,0,1,0,5.28,0v-7h4.35v7A7,7,0,0,1,20.44,18.77Z"/></g><path id="_Compound_Path_" data-name="&lt;Compound Path&gt;" class="cls-1" d="M36.52,0V5.31a7,7,0,1,0,0,12.94v.52h4.35V0ZM33.88,14.42a2.64,2.64,0,1,1,2.64-2.64A2.64,2.64,0,0,1,33.88,14.42Z"/><path id="_Compound_Path_2" data-name="&lt;Compound Path&gt;" class="cls-1" d="M54.31,19A4.64,4.64,0,0,0,53,15.85a7,7,0,0,0,.44-7.45l.86-.2V5.12H49.43a7,7,0,1,0-2.11,13.65h2.33a.31.31,0,0,1,.31.3A2.64,2.64,0,0,1,45,20.34L41.26,22.5a7,7,0,0,0,13.05-3.42h0v0Zm-9.62-7.25a2.64,2.64,0,1,1,2.64,2.64A2.64,2.64,0,0,1,44.68,11.78Z"/><path id="_Compound_Path_3" data-name="&lt;Compound Path&gt;" class="cls-1" d="M67.74,19a4.64,4.64,0,0,0-1.31-3.18,7,7,0,0,0,.44-7.44l.87-.2V5.12H62.86a7,7,0,0,0-2.11-.33h0a7,7,0,0,0,0,14h2.33a.31.31,0,0,1,.31.3,2.64,2.64,0,0,1-4.93,1.28l-3.76,2.18a7,7,0,0,0,13-3.45h0v0Zm-9.62-7.25a2.64,2.64,0,1,1,2.64,2.64A2.64,2.64,0,0,1,58.12,11.78Z"/></g></g></svg>